<?xml version="1.0" encoding="utf-8"?>
<!-- Generator: Adobe Illustrator 25.4.1, SVG Export Plug-In . SVG Version: 6.00 Build 0)  -->
<svg version="1.1" id="Layer_1" xmlns="http://www.w3.org/2000/svg" xmlns:xlink="http://www.w3.org/1999/xlink" x="0px" y="0px"
	 viewBox="0 0 841.89 427.11" style="enable-background:new 0 0 841.89 427.11;" xml:space="preserve">
<g>
	<g>
		<g>
			<path d="M11.69,308.11c-4.14-1.46,0.24-18.25,0.49-22.63c2.92-37.23,5.84-74.94,9.73-112.42c2.43-21.17,6.81-43.07,9.98-64.48
				c14.6,1.7,29.2-1.7,43.8-1.95c2.68-0.24,6.57-0.97,7.79,1.7l30.66,198.07c-7.05,0.73-17.76,3.65-24.58,3.65
				c-1.46,0-10.7-0.73-11.68-1.22c-3.41-0.97-3.89-7.3-4.87-10.46c-3.41-18.25-3.17-38.69-5.6-57.43H52.33
				c-3.65,22.14-0.97,44.53-1.22,67.16H11.69z"/>
			<path d="M163.28,252.39l2.19,2.92c5.11-0.97,10.71,0.97,15.58,0.97c2.19,0.24,4.62-0.97,7.3-0.97c1.7,0,3.41,0.49,4.87,2.43
				l-0.73,47.21l-71.78,3.41c-2.44-0.97-2.92-4.14-3.16-6.33c-2.19-17.52,1.94-39.42,1.22-58.16c-1.95-40.64-1.22-79.81-1.22-119.72
				c0-5.11-0.24-9.73,0.24-14.6c0.98-3.65,13.38-1.46,17.28-2.19c9.98-0.73,19.71-2.19,29.69-3.4L163.28,252.39z"/>
			<path d="M199.04,307.14l-1.22-54.5c2.44-10.95,0.98-21.9,1.22-33.09c0.97-34.07,1.46-65.94,3.89-100.5
				c0.24-4.87-0.24-10.22,0-15.09c6.81,0.97,13.87,0.73,20.93,0.73c3.65,0,25.55,0.49,26.52,3.65c-0.24,1.95-0.97,3.89-0.97,5.84
				c-0.98,43.8-2.44,87.6-1.22,131.15c0.38,16.63,0.93,33.41,1.62,50.11l-21.46,12.39L199.04,307.14z"/>
			<path d="M289.56,105.17c0.24,0,1.22-1.22,2.19-0.97c8.03,0.97,26.52,68.62,29.44,79.08l-1.7-76.89l34.55-2.19l1.95,1.7
				c1.46,28.47,1.95,56.94,1.46,85.41c-0.49,6.33-2.68,14.36-2.68,20.68c-0.2,7.66-0.25,15.32-0.24,22.98l-42.79,24.7l-18.54-42.33
				c-2.42,0.22,3.34,40.21,3.9,50.79l-37.45,21.62l-1.25-19.36c-1.7-42.34,2.19-84.68,2.19-126.78c0-10.22-0.97-24.58,0-34.07
				c0.49-1.7,0.49-3.16,2.19-4.38H289.56z"/>
		</g>
	</g>
	<g>
		<g>
			<path d="M432.84,308.11c-4.14-1.46,0.24-18.25,0.49-22.63c2.62-33.43,5.24-67.25,8.57-100.94l68.41-39.49l24.98,161.36
				c-7.06,0.73-17.76,3.65-24.58,3.65c-1.46,0-10.71-0.73-11.68-1.22c-3.41-0.97-3.89-7.3-4.87-10.46
				c-3.41-18.25-3.17-38.69-5.6-57.43h-15.09c-3.65,22.14-0.97,44.53-1.22,67.16H432.84z"/>
			<path d="M628.48,107.12c0.97,29.2-7.3,57.67-11.19,86.14c-4.38,31.63-4.14,69.59-11.68,99.52c-0.97,2.68-3.16,11.19-4.87,12.17
				c-1.95,0.73-4.62,0.97-7.79,0.97c-7.54,0-17.28-1.22-25.06-1.22c-3.41,0-6.57,0.24-8.76,0.97c-3.16-0.24-4.87-14.36-5.84-17.28
				c-14.36-44.29-21.9-90.52-31.15-136.26c-0.81-4.11-1.8-8.2-2.82-12.3l35.56-20.53l24.45,120.66
				c3.41-43.55-0.24-87.35,6.81-130.42c0.24-0.24,7.3-2.43,7.79-2.43H628.48z"/>
			<path d="M685.41,104.2c5.6,0,21.66,2.68,25.55,4.62c10.46,5.84,15.33,21.9,16.06,33.09c1.46,19.95-0.24,43.31-0.24,63.75
				c0,22.14,2.43,42.82-4.14,64.72c-1.7,6.33-7.79,24.82-12.9,27.98c-10.46,7.06-19.22,9.98-32.12,9.98
				c-22.39-0.24-37.23-14.11-44.29-34.07c-9.73-28.23-4.14-97.09,0.97-127.51c2.43-15.57,6.57-30.66,22.63-37.23
				C660.59,107.85,681.03,104.2,685.41,104.2z"/>
			<path d="M803.66,153.6c0.49,1.22,1.22,2.43,1.22,3.89c0.97,27.98,3.16,55.97,4.38,83.95c0.97,19.71-1.95,39.42,3.41,59.13
				c-4.87,2.68-9.73,3.65-14.84,3.65c-9.49,0-19.47-3.41-28.96-3.16l-2.43-69.59c-0.73-13.38-3.16-26.77-4.38-40.15
				c-0.24-5.84-0.24-39.66-2.92-41.12c-1.7-0.49-3.65-0.73-5.35-0.73c-3.16,0-6.33,0.49-9.49,0.49c-2.43,0-4.87-0.24-7.3-0.97
				l-1.22-43.07l90.52-1.95c4.38,1.95,2.43,10.71,2.68,15.09c0.24,5.35,4.14,28.23,2.68,31.15c-0.24,0.49-1.95,2.19-1.95,2.19
				c-6.81,0-15.82-0.73-21.9,0C806.82,152.38,805.36,153.84,803.66,153.6z"/>
		</g>
	</g>
	<rect x="186.79" y="212.53" transform="matrix(0.8658 -0.5003 0.5003 0.8658 -54.3331 224.4999)" width="409.26" height="2.05"/>
	<g>
		<path d="M326.92,297.39c0.26,1.37,0.38,2.44-0.11,4.24c-3.33,12.31-1.96,29.58-1.97,34.63c-0.01,8.31,1.3,16.48,1.26,24.79
			c-0.03,6.66,1.37,13.02,1.74,18.36c0.53,7.58,0.95,12.38,0.94,18.25c0.01,1.09-0.55,2.08-1.04,2.68c-3.7,4.57-4.88,5.4-7.54,8.74
			c-0.69,0.87-2.78,5.64-3.9,8.2c-0.47,1.07-0.77,2.7,0.43,2.91c0.95,0.17,1.58-0.31,2.05-0.8c-0.26,0.54-0.63,1.39-0.68,1.77
			c-0.16,1.16,0.61,1.96,1.74,2.03c1.22,0.08,2.15-0.58,2.78-1.55c-0.62,1.07-1.21,3.03,0.59,3.42c1.8,0.39,3.09-0.7,3.75-1.84
			c0.27-0.47,0.49-0.89,0.64-1.07c0.51,0.78,1.14,1.1,1.81,1.02c1.09-0.13,1.77-0.9,2.55-2.27c0.81-1.4,2.65-4.52,3-4.91
			c0.93-1.04,4.18-3.82,5.83-4.21c1.16-0.27,1.85-0.29,2.69,0.83c1.1,1.43,1.12,2.93,2.51,3.11c1.41,0.19,2.16-0.5,1.92-1.56
			c-0.46-2.1,0.33-3.7-0.47-5.61c-0.76-1.62-1.91-3.89-2.78-4.4c-1.81-1.07-2.16-3.51-2.37-4.48c-0.24-1.12-0.31-2.06-0.19-3.35
			c0.24-5.83,1.69-26.01,1.94-31.3c0.69-8.32-2.46-10.88,0.15-16.67c1.87-3.39,3.06-10.1,2.99-14.33
			c-0.06-6.55,0.35-16.02,0.14-21.65c0.42-3.73,5.79-6.09,9.55-10.24c1.49-1.49,4.43-6.63,4.9-8.57c1.4,0.14,3.09-1.36,3.26-0.43
			c0.33,1.84,0.45,3.04,0.04,4.33c-0.56,0.11-1.47,0.92-1.43,1.8c0.19,4.33-3.19,8.6-5.87,13.25c-2.17,3.76-5.14,9.44-4.65,13.92
			c0.75,6.84,2.84,12.77,8.92,15.36c2.95,1.54,5.97,4.18,8.9,5.77c1.34,0.73,3.41,1.37,4.93,1.14c2.7-0.41,5.49-0.57,9.77-0.76
			c4.17-0.18,6.95-3.14,5.51-8.47c1.34-2.48,0.82-3.12,0.04-5.08c-0.49-1.23,0.07-2.57,1.11-4.17c0.38-0.59,0.79-2.09,0.56-2.74
			c-0.55-1.53-0.58-2.12,0.1-3.51c0.42-0.87,0.91-2.63,1.07-3.57c0.78-4.42-0.96-7.04-0.47-13.44c-0.03-1.88-1.76-3.19-3.03-3.66
			c-1.71-0.63-3.44-2.51-3.59-3.98c-0.23-2.31,0.09-7.69,1.71-8.7c1.07-0.87,3.05-0.35,3.22,0.17c0.24,0.73,2.1,5.45,4.58,5.23
			c2.72,1.82-0.83,5.34,3.19,8.41c1.22,9.05,3.31,32.91,6.72,37.98c0.68,1.43,1.4,3.85,1.18,5.35c-1.01,9.7,0.7,15.25,3.16,24.45
			c1.59,5.93,1.78,19.96,1.18,21.99c-0.47,1.57-1.45,3.34-3.02,4.31c-1.82,1.12-3.56,3.01-5,4.84c-0.85,1.09-2.37,2.13-2.97,3.37
			c-0.56,1.14-0.79,2.22-2.25,3.93c-0.39,0.64-0.93,1.25-0.43,2.04c0.82,1.5,3.94,0.22,4.55-0.99c1.29-2.36,3.4-3.25,4.28-4.12
			c-0.62,1.84-2.07,5.52-2.72,6.8c-0.4,0.78-0.08,2.19,0.69,2.54c0.78,0.35,2.15,0.08,2.89-1.16c0.05,1.32,2,1.68,2.81,1.11
			s1.16-1.08,1.47-1.69c0.36-0.7,0.69-1.56,1.46-2.07c-0.28,1.08-0.4,1.84,0.64,2.06c0.89,0.19,1.62-0.35,1.92-0.68
			c0.59-0.66,2.15-3.53,2.49-3.9c1.29,0.99,2.49,0.25,3.8-1.92c0.72-1.07,1.14-2.24,2.03-3.12c2.42-2.39,2.48-5.08,1.96-8.06
			c-0.72-2.21-0.25-2.2-1.02-8.27c-0.54-6.2,1.44-23.87,0.55-29.45c-1.04-6.44-2.18-10.06-2.87-16.54c-0.21-1.96-0.4-3.71-0.46-5.69
			c-0.22-7.54,0.48-22.64,0.17-30.21c-0.27-6.44-0.66-13.32-3.01-19.38c-0.26-0.67-0.3-1.03-0.36-1.64
			c-0.07-0.59-0.08-1.94,0.08-2.58c0.81-3.3,2.03-6.21,1.58-6.97c-0.59-0.98-2.04-2.39-4.11-4.44c-2.32-2.29-3.18-4.82-3.54-7.59
			c-0.17-1.3,0.12-3.96-0.11-5.3c-0.29-1.64-1.5-5.93-1.65-7.7c-0.36-4.08-0.93-8.36-1.63-11.98c-0.99-5.09-3.33-9.8-4.37-14.85
			c-1.32-6.42-2.08-12.04-2.61-17.94l-68.98,39.83c0,0.49-0.03,1.07-0.12,1.83c-0.4,3.28-1.26,6.39-2.22,9.83
			c-0.54,1.94-0.73,4.04-0.69,6.06c0.05,2.85,0.46,6.52,0.18,9.32c-0.24,2.36-1.05,2.81-1.19,6.16c-0.07,1.64-1.83,4.48-2.35,6.21
			C326.82,290.23,325.95,292.21,326.92,297.39z"/>
		<path d="M359.92,18.13c1.18-0.15,2.31,0.32,3.18,0.99c4.02,3.65,7.42,7.49,10.96,11.42c1.31,1.67,1.63,4.32,1.86,6.43
			c0.5,4.47,0.16,8.96-0.12,13.42c-0.61,9.44-0.91,20.94-0.58,30.4c0.16,4.68,0.81,9.33,1.99,13.9c1.54,5.98,1.8,12.1,1.68,18.24
			c-0.09,4.45-1.35,8.75-1.64,13.14c-0.65,9.7-0.74,20.53-0.8,30.25c-0.87,1.19-3.55,1.87-5.38,2.38c-5.24,1.48-3.9,3.65-2.35,6.43
			c1.55,2.78,4.91,5.06,7.44,4.91c0.4,1.45,0.89,3.91,1.04,6c0.28,3.99,1.08,5.73,2,9.61c1.34,5.66,1.17,13.1,1.46,18.89
			c0.23,4.59,0.16,9.17,0.92,13.79c0.05,0.32,0.09,0.64,0.14,0.96l70.57-40.74c0.19-2.01,0.21-4.05-0.24-6.12
			c-0.37-1.7,0.09-5.61,0.84-7.27c4.72,0,7.14-1.77,8.26-3.5c0.73-1.13-0.01-2.38-0.26-3.67c-0.36-1.83-0.7-3.61-2.71-4.12
			c-3.42-0.87-5.38-0.41-7.7,0.17c-0.28-2.77-0.9-7.06-1.22-9.82c-0.86-7.35-1.45-14.74-2.57-22.05
			c-1.66-10.87-1.55-21.69-0.46-32.53c0.53-5.27,2.19-11.46,1.69-16.76c-0.69-7.36-0.89-13.81-2.52-21.07
			c-0.18-0.81-2.02-11.48-2.32-17.52c-0.13-2.54,0.63-9.09,2.37-10.76c3.14-3.02,6-6.7,9.29-9.93c0.83-0.94,1.91-1.45,3.26-1.4
			c1.08,0.04,2.14,0.4,3.21,0.21c1.2-0.21,1.6-1.04,1.89-2.01c0.2-0.64-0.21-1.53-0.7-1.81c-0.88-0.49-1.57-0.73-3.04-0.9
			c-2.57-2.8-6.66-4.52-10.51-5.44c-1.91-0.45-3.58-0.4-4.98,1.26c-0.98,1.17-1.22,2.83-2.07,4.04c-1.44,2.06-2.97,3.32-5.05,4.4
			c-2.62,1.37-4.26,3.28-3.66,6.49c0.11,0.58,0.26,1.95,0.32,2.56c0.46,4.49-1.13,15.65-1.31,17.53c-0.7,7.23-1.14,12.58-2.32,15.92
			c-2.76,8.53-3.29,17.19-2.56,25.98c0.21,2.54,0.7,4.98,0.39,7.42c-0.31,2.41-1.4,4.81-2.44,7.14c-1.16,2.62-1.94,5.37-2.24,8.23
			c-0.95,9.14-0.91,18.33-1.11,27.5c-0.08,3.85-2.26,14.79-3.09,16.23c-1.77-2.6-4.13-0.43-8.81-4.53c-1.35,0.43-2.65,1.64-3,3.37
			c-2.42-6.38-5.91-16.42-6.08-25.23c-0.16-8.23-0.68-18.66-4.5-25.71c-0.7-1.64-0.89-3.38-0.98-5.17
			c-0.32-6.1-0.28-12.26-1.68-18.24c-1.21-5.16-2.98-12.21-4.3-17.35c-1.42-5.52-2.78-11.06-3.36-16.69
			c-0.4-3.85-0.62-6.19-0.67-7.87c-0.03-0.98-0.06-1.97-0.05-2.96c0-3.07,0.78-5.16-3.33-7.04c-1.1-0.5-2.02-0.66-2.69-1.22
			c-1.91-1.6-3.16-4.09-3.84-6.72c-0.95-3.72-2.9-5.64-5.89-4.56c-3.31,1.2-7.23,2.46-8.91,6.3c-0.25,0.61-0.76,0.92-1.43,1
			c-1.23,0.15-1.81,0.86-1.66,2.1C357.67,17.65,358.57,18.3,359.92,18.13z"/>
	</g>
</g>
<g>
	<path d="M459.99,353.75l-5.56-3.18c-0.93,0-1.46,3.18-1.59,3.97c-0.93,5.56-0.6,11.26-0.66,16.96c0,1.79-0.93,5.43,0.46,6.96
		c0.2,0.2,0.4,0.33,0.66,0.33c1.26,0,2.72-3.18,3.57-3.18c2.79,1.26,4.37,3.91,6.69,5.69c0.13,0.13,0.13,0.27,0.13,0.53
		c-0.06,0.53-1.66,4.04-1.98,4.84c-0.4,0.6-1.46,2.71-1.92,3.18c-1.26,1.19-5.7,2.32-7.68,2.32c-0.13,0-0.27,0-0.33,0
		c-6.43-0.73-8.81-9.93-9.14-15.3c-0.53-8.68-0.79-23.12,1.06-31.46c1.13-5.23,5.63-7.75,10.47-7.75c1.06,0,2.12,0.07,3.18,0.33
		c2.78,0.66,4.77,3.31,7.02,4.9L459.99,353.75z"/>
	<path d="M466.48,391.96l-0.33-14.84c0.66-2.98,0.26-5.96,0.33-9.01c0.26-9.27,0.4-17.95,1.06-27.35c0.07-1.33-0.06-2.78,0-4.11
		c1.86,0.27,3.78,0.2,5.7,0.2c1,0,6.96,0.13,7.22,0.99c-0.07,0.53-0.27,1.06-0.27,1.59c-0.26,11.92-0.66,23.84-0.33,35.7
		c0.13,5.69,0.33,11.46,0.6,17.15L466.48,391.96z"/>
	<path d="M506.15,387.86c-2.65,0.6-4.24,3.51-6.95,3.57l-4.64-15.76l-0.4,15.76l-5.56,0.86h-3.71l-0.27-52.92
		c2.45-0.26,5.7-0.73,8.88-0.73c5.43,0,10.73,1.32,11.99,7.02c0.79,3.38,1.06,9.54,0.33,12.85c-0.66,2.78-2.91,6.89-5.43,8.35
		L506.15,387.86z"/>
	<path d="M527.61,353.75l-5.56-3.18c-0.93,0-1.46,3.18-1.59,3.97c-0.93,5.56-0.6,11.26-0.66,16.96c0,1.79-0.93,5.43,0.47,6.96
		c0.2,0.2,0.4,0.33,0.66,0.33c1.25,0,2.71-3.18,3.57-3.18c2.78,1.26,4.37,3.91,6.69,5.69c0.13,0.13,0.13,0.27,0.13,0.53
		c-0.06,0.53-1.66,4.04-1.99,4.84c-0.4,0.6-1.46,2.71-1.92,3.18c-1.26,1.19-5.7,2.32-7.68,2.32c-0.13,0-0.26,0-0.33,0
		c-6.43-0.73-8.81-9.93-9.14-15.3c-0.53-8.68-0.8-23.12,1.06-31.46c1.13-5.23,5.63-7.75,10.47-7.75c1.06,0,2.12,0.07,3.18,0.33
		c2.79,0.66,4.77,3.31,7.02,4.9L527.61,353.75z"/>
	<path d="M543.9,336.66c0.8,1.85,0.07,3.64,0.07,5.43c-0.27,7.75,0,15.63,0.33,23.51c0.13,5.1-0.07,10.33,1.19,15.43
		c0.33,0.13,0.66,0.2,0.93,0.2c1.32,0,2.05-1.33,2.19-2.72c0.46-4.44,0.13-11.66,0-16.36c-0.2-4.97-0.93-10.4-0.99-15.5
		c0-1.26-0.2-9.21,0.6-9.47l8.87,0.66l0.73,0.53c0.79,3.91,0.53,7.82,0.73,11.72c0.4,10.8,0.93,23.98-0.4,34.64
		c-0.73,6.09-10,7.35-15.04,7.35c-2.85,0-4.7-0.66-6.36-3.84c-2.98-5.5-2.26-12.65-3.05-18.68l0.33-32.19l0.79-0.4L543.9,336.66z"/>
	<path d="M577.49,338.58c2.32,0.99,3.98,5.5,6.29,7.15l-3.51,9.61c-0.4,0-4.3-4.7-5.1-5.3c-1.13-0.99-1.98-1.39-2.58-1.39
		c-1.32,0-1.06,2.32,0.8,4.37c1.59,1.85,4.04,3.84,5.56,5.56c7.62,8.94,9.4,27.75-2.72,33.78c-0.33,0.2-0.73,0.27-1.19,0.27
		c-1.53,0-3.45-0.73-4.44-1.19c-2.65-1.13-4.11-4.44-5.57-6.76c-0.4-0.6-1.06-0.99-1.45-1.59c-0.4-0.66-3.11-5.83-3.11-6.16
		c-0.07-0.93,2.45-2.98,3.24-3.44c0.6-0.27,4.24-1.59,4.64-1.59c0.73,0.07,1.46,2.45,1.92,3.31c0.33,0.6,2.45,3.91,3.64,3.91
		c0.26,0,0.53-0.2,0.66-0.66c0.2-0.53-1.13-4.44-1.46-5.23c-1.32-2.85-3.84-5.1-5.56-7.55c-0.93-1.46-5.1-7.82-5.23-8.87
		c-0.73-5.96,0.86-12.25,4.77-16.82c1.13-1.26,2.32-2.12,4.04-2.38C572.65,337.46,576.16,337.92,577.49,338.58z"/>
	<path d="M622.86,353.75l-5.56-3.18c-0.93,0-1.46,3.18-1.59,3.97c-0.93,5.56-0.6,11.26-0.66,16.96c0,1.79-0.93,5.43,0.46,6.96
		c0.2,0.2,0.4,0.33,0.66,0.33c1.26,0,2.72-3.18,3.57-3.18c2.79,1.26,4.37,3.91,6.69,5.69c0.13,0.13,0.13,0.27,0.13,0.53
		c-0.06,0.53-1.66,4.04-1.98,4.84c-0.4,0.6-1.46,2.71-1.92,3.18c-1.26,1.19-5.7,2.32-7.68,2.32c-0.13,0-0.27,0-0.33,0
		c-6.43-0.73-8.81-9.93-9.14-15.3c-0.53-8.68-0.79-23.12,1.06-31.46c1.13-5.23,5.63-7.75,10.47-7.75c1.06,0,2.12,0.07,3.18,0.33
		c2.78,0.66,4.77,3.31,7.02,4.9L622.86,353.75z"/>
	<path d="M644.65,336.73c1.52,0,5.89,0.73,6.95,1.26c2.85,1.59,4.17,5.96,4.37,9.01c0.4,5.43-0.06,11.79-0.06,17.35
		c0,6.03,0.66,11.66-1.13,17.62c-0.47,1.72-2.12,6.76-3.51,7.62c-2.85,1.92-5.23,2.72-8.75,2.72c-6.09-0.07-10.13-3.84-12.05-9.27
		c-2.65-7.68-1.13-26.43,0.26-34.7c0.66-4.24,1.79-8.35,6.16-10.13C637.89,337.72,643.46,336.73,644.65,336.73z"/>
	<path d="M686.77,392.3v-27.16l-3.71,10.4l-5.63,0.07c-0.47-0.07-1.72-6.03-1.99-6.82c-0.2-0.46-1.32-3.05-1.59-3.45
		c-0.2-0.4-0.33-0.6-0.86-0.53v26.83c-1.06,0.2-2.19,0.26-3.25,0.26c-2.45,0-4.83-0.33-7.22-0.4c-1.13-0.79-0.6-12.65-0.66-14.77
		c0-0.73-0.33-1.52-0.33-2.25c-0.2-12.38,0.6-24.77,0.33-37.16h10.66l7.49,18.35c1.98-3.58,1.85-7.62,2.51-11.52
		c0.47-2.65,1.66-4.77,1.26-7.48l11.33,2.65c0.26,4.04,0.6,8.15,0.46,12.32c-0.33,11.59-0.73,22.92-0.33,34.64
		c0.07,2.05,0.73,6.03-2.12,6.03H686.77z"/>
	<path d="M714.86,367.92c-0.47,0.27-3.51,1.39-3.58,1.79c-0.06,2.65,0.07,5.23,0,7.88c0,0.8-0.33,1.59-0.33,2.38
		c-0.13,4.11,0.66,8.35-0.6,12.32l-9.73-0.73l-0.13-53.65c0.86-0.86,5.03-0.93,6.23-0.93c3.57,0,7.42,0.66,9.94,2.78
		c5.83,4.97,7.35,18.74,2.12,24.44C718.23,364.87,715.52,367.52,714.86,367.92z"/>
	<path d="M722.8,392.23c-1.13-0.4,0.06-4.97,0.13-6.16c0.79-10.13,1.59-20.4,2.65-30.6c0.66-5.76,1.85-11.72,2.72-17.55
		c3.97,0.46,7.95-0.46,11.92-0.53c0.73-0.07,1.79-0.27,2.12,0.46l8.34,53.91c-1.92,0.2-4.83,0.99-6.69,0.99
		c-0.4,0-2.92-0.2-3.18-0.33c-0.93-0.27-1.06-1.99-1.32-2.85c-0.93-4.97-0.86-10.53-1.53-15.63h-4.11
		c-0.99,6.03-0.26,12.12-0.33,18.28H722.8z"/>
	<path d="M761.35,336.99c0.06,0,0.33-0.33,0.6-0.27c2.19,0.27,7.22,18.68,8.01,21.52l-0.46-20.93l9.4-0.6l0.53,0.46
		c0.4,7.75,0.53,15.5,0.4,23.25c-0.13,1.72-0.73,3.91-0.73,5.63c-0.2,7.82,0.13,15.63,0,23.51c-0.26,1.19-3.45,2.25-4.44,2.25
		c-1.59-0.07-1.32-1.46-1.92-2.45c-0.6-0.93-1.45-1.79-1.98-2.65l-8.41-19.21c-0.73,0.07,1.26,13.31,1.06,14.44l-0.47,8.74l-0.4,0.4
		c-1.79,0.27-3.71,0.66-5.63,0.66c-1.13,0-2.32-0.13-3.45-0.53l-0.6-9.27c-0.47-11.52,0.6-23.05,0.6-34.51c0-2.78-0.27-6.69,0-9.27
		c0.13-0.46,0.13-0.86,0.6-1.19H761.35z"/>
	<path d="M797.52,352.62c0.4,0.07,0.4-0.53,0.47-0.86c1.25-4.5,0.73-9.47,2.05-13.98c1.26,0.46,10.33,0,10.4,0.8
		c-0.46,2.58-0.93,5.1-1.85,7.62c-0.73,1.72-1.92,3.44-2.38,5.17c-1.06,3.51-1.52,7.62-2.38,11.19c-0.93,3.24-1.72,4.77-1.92,8.54
		c-0.33,6.82,0.86,13.38,0.6,20.13c-0.06,0.4-2.19,0.8-2.65,0.93c-1,0.07-7.29,0.13-7.55-0.33c-0.66-5.5-0.27-11.06-0.53-16.63
		c-0.06-2.32-0.06-7.48-0.6-9.47c-0.47-1.52-1.92-3.64-2.58-5.3c-2.12-6.23-3.71-12.91-5.43-19.14c-0.4-1.32-0.99-2.38-1.46-3.71
		c0.27-0.93,6.36-0.8,7.42-0.8c0.99,0.07,1.92,0.4,2.91,0.4c0.4,0,0.86-0.07,1.33-0.2L797.52,352.62z"/>
</g>
</svg>
