<?xml version="1.0" encoding="utf-8"?>
<!-- Generator: Adobe Illustrator 25.4.1, SVG Export Plug-In . SVG Version: 6.00 Build 0)  -->
<svg version="1.1" id="Layer_1" xmlns="http://www.w3.org/2000/svg" xmlns:xlink="http://www.w3.org/1999/xlink" x="0px" y="0px"
	 viewBox="0 0 822.05 247.89" style="enable-background:new 0 0 822.05 247.89;" xml:space="preserve">
<g>
	<path d="M76.94,3.13C59.86,3.42,42.78,7.4,25.7,5.41C22,30.46,16.87,56.08,14.03,80.85c-4.56,43.84-7.97,87.97-11.39,131.52
		c-0.29,5.12-5.41,24.77-0.57,26.47h46.12c0.29-26.47-2.85-52.67,1.42-78.57h17.65c2.84,21.92,2.56,45.83,6.55,67.18
		c1.14,3.7,1.71,11.1,5.69,12.24c1.14,0.57,11.95,1.42,13.66,1.42c7.97,0,20.5-3.42,28.75-4.27L86.05,5.12
		C84.63,1.99,80.07,2.85,76.94,3.13z"/>
	<path d="M699.26,44.41c-0.85-13.09-6.55-31.88-18.79-38.71c-4.55-2.28-23.34-5.41-29.89-5.41c-5.12,0-29.04,4.27-33.31,6.26
		c-18.79,7.69-23.63,25.33-26.48,43.55c-5.98,35.58-12.53,116.15-1.14,149.17c8.25,23.34,25.62,39.57,51.81,39.85
		c15.09,0,25.33-3.42,37.58-11.67c5.98-3.7,13.1-25.33,15.09-32.74c7.69-25.62,4.84-49.82,4.84-75.72
		C698.98,95.08,700.97,67.75,699.26,44.41z"/>
	<path d="M818.53,17.65c-0.29-5.12,1.99-15.37-3.13-17.65L709.5,2.28l1.42,50.39c2.85,0.85,5.69,1.14,8.54,1.14
		c3.7,0,7.4-0.57,11.1-0.57c1.99,0,4.27,0.29,6.26,0.85c3.13,1.71,3.13,41.28,3.42,48.11c1.42,15.66,4.27,31.31,5.12,46.97
		l2.85,81.42c11.1-0.29,22.77,3.7,33.88,3.7c5.98,0,11.67-1.14,17.37-4.27c-6.26-23.06-2.85-46.12-3.99-69.18
		c-1.42-32.74-3.99-65.48-5.12-98.21c0-1.71-0.85-3.13-1.42-4.55c1.99,0.29,3.7-1.42,4.84-1.42c7.12-0.86,17.65,0,25.62,0
		c0,0,1.99-1.99,2.28-2.56C823.37,50.67,818.82,23.91,818.53,17.65z"/>
	<path d="M598.8,3.85l-1.2-2.07L405.03,112.96c0.64-3.75,1.29-7.45,1.55-10.76c0.57-33.31,0-66.61-1.71-99.92l-2.28-1.99
		l-40.42,2.56l1.99,89.96c-3.42-12.24-25.05-91.38-34.45-92.52c-1.14-0.28-2.28,1.14-2.56,1.14h-31.31
		c-1.99,1.42-1.99,3.13-2.56,5.12c-1.14,11.1,0,27.9,0,39.85c0,44.1-3.64,88.43-2.97,132.79l-11.01,6.35
		c-0.2-6.73-0.38-13.45-0.53-20.15c-1.43-50.96,0.28-102.2,1.42-153.44c0-2.28,0.85-4.55,1.14-6.83c-1.14-3.7-26.76-4.27-31.03-4.27
		c-8.25,0-16.51,0.28-24.48-0.85c-0.29,5.69,0.29,11.96,0,17.65c-2.84,40.42-3.42,77.72-4.55,117.57
		c-0.29,13.09,1.42,25.91-1.43,38.71l1.01,45.36l-7.09,4.09l0.67-43.47c-1.71-2.28-3.7-2.85-5.69-2.85c-3.13,0-5.98,1.42-8.54,1.14
		c-5.69,0-12.24-2.28-18.22-1.14l-2.56-3.42L181.13,0c-11.67,1.42-23.06,3.13-34.73,3.98c-4.56,0.86-19.07-1.71-20.21,2.56
		c-0.57,5.69-0.28,11.1-0.28,17.08c0,46.69-0.86,92.52,1.42,140.06c0.85,21.92-3.99,47.54-1.42,68.04c0.28,2.56,0.85,6.26,3.7,7.4
		l61.99-2.94l-16.69,9.63l1.2,2.07l185.33-107c-2.04,23.9-3.91,47.78-5.77,71.48c-0.29,5.12-5.41,24.77-0.57,26.47h46.12
		c0.29-26.47-2.85-52.67,1.42-78.57h17.65c2.85,21.92,2.56,45.83,6.55,67.18c1.14,3.7,1.71,11.1,5.69,12.24
		c1.14,0.57,11.96,1.42,13.66,1.42c7.97,0,20.5-3.42,28.75-4.27L452,88.6l12.51-7.22c8.81,45.28,17.31,90.66,31.5,134.41
		c1.14,3.42,3.13,19.93,6.83,20.21c2.56-0.85,6.26-1.14,10.25-1.14c9.11,0,20.5,1.42,29.32,1.42c3.7,0,6.83-0.29,9.11-1.14
		c1.99-1.14,4.55-11.1,5.69-14.23c8.83-35.01,8.54-79.42,13.67-116.43c4.17-30.48,12.61-60.97,13.14-92.1L598.8,3.85z
		 M331.42,132.66l7.97,18.19l-7.28,4.21C330.86,142.96,330.1,132.78,331.42,132.66z M526.47,159.13L505.88,57.5l24.49-14.14
		C527.79,81.78,529.49,120.54,526.47,159.13z"/>
</g>
</svg>
