<?xml version="1.0" encoding="utf-8"?>
<!-- Generator: Adobe Illustrator 25.4.1, SVG Export Plug-In . SVG Version: 6.00 Build 0)  -->
<svg version="1.1" id="Layer_1" xmlns="http://www.w3.org/2000/svg" xmlns:xlink="http://www.w3.org/1999/xlink" x="0px" y="0px"
	 viewBox="0 0 254.61 427.11" style="enable-background:new 0 0 254.61 427.11;" xml:space="preserve">
<style type="text/css">
	.st0{fill:#FFFFFF;}
</style>
<rect x="-19.1" y="209.54" transform="matrix(0.8658 -0.5003 0.5003 0.8658 -88.2757 91.9491)" class="st0" width="292.81" height="2.07"/>
<g>
	
		<rect x="-19.1" y="209.04" transform="matrix(0.8658 -0.5003 0.5003 0.8658 -88.0268 91.8823)" class="st0" width="292.81" height="2.07"/>
	<g>
		<path class="st0" d="M56.1,298.17c0.26,1.39,0.38,2.47-0.11,4.27c-3.36,12.42-1.98,29.86-1.99,34.95
			c-0.01,8.39,1.31,16.63,1.28,25.02c-0.03,6.72,1.38,13.14,1.76,18.53c0.54,7.65,0.96,12.49,0.95,18.42
			c0.01,1.1-0.56,2.1-1.05,2.71c-3.74,4.61-4.92,5.45-7.61,8.82c-0.7,0.87-2.81,5.69-3.93,8.27c-0.47,1.08-0.78,2.72,0.43,2.94
			c0.96,0.17,1.59-0.31,2.07-0.81c-0.26,0.54-0.63,1.4-0.69,1.78c-0.16,1.17,0.61,1.97,1.76,2.05c1.23,0.08,2.17-0.59,2.8-1.56
			c-0.63,1.08-1.22,3.06,0.6,3.45c1.82,0.39,3.12-0.71,3.78-1.86c0.27-0.47,0.49-0.9,0.65-1.08c0.52,0.79,1.16,1.11,1.83,1.03
			c1.1-0.13,1.78-0.91,2.57-2.29c0.81-1.41,2.68-4.57,3.03-4.95c0.94-1.04,4.22-3.86,5.89-4.25c1.18-0.27,1.86-0.29,2.72,0.83
			c1.11,1.45,1.13,2.96,2.54,3.14c1.43,0.19,2.18-0.5,1.94-1.58c-0.47-2.12,0.34-3.73-0.48-5.66c-0.77-1.63-1.93-3.92-2.81-4.44
			c-1.83-1.08-2.18-3.55-2.39-4.52c-0.24-1.13-0.32-2.08-0.19-3.38c0.24-5.89,1.7-26.25,1.96-31.6c0.7-8.4-2.48-10.98,0.15-16.83
			c1.88-3.42,3.09-10.2,3.02-14.47c-0.06-6.61,0.35-16.17,0.14-21.85c0.43-3.77,5.85-6.15,9.64-10.33c1.5-1.5,4.48-6.69,4.94-8.65
			c1.42,0.15,3.12-1.38,3.29-0.43c0.33,1.85,0.45,3.07,0.04,4.37c-0.56,0.11-1.48,0.93-1.45,1.82c0.19,4.37-3.22,8.68-5.93,13.37
			c-2.19,3.79-5.19,9.52-4.69,14.05c0.75,6.9,2.86,12.89,9,15.5c2.98,1.55,6.03,4.22,8.98,5.82c1.35,0.73,3.44,1.38,4.97,1.15
			c2.72-0.41,5.54-0.58,9.86-0.77c4.21-0.19,7.02-3.17,5.57-8.55c1.35-2.51,0.83-3.15,0.04-5.13c-0.49-1.24,0.07-2.6,1.12-4.21
			c0.39-0.59,0.8-2.11,0.56-2.76c-0.56-1.54-0.59-2.14,0.1-3.54c0.43-0.88,0.92-2.66,1.08-3.61c0.79-4.46-0.97-7.11-0.48-13.56
			c-0.03-1.9-1.77-3.22-3.05-3.69c-1.73-0.63-3.47-2.53-3.62-4.02c-0.23-2.33,0.09-7.76,1.73-8.78c1.08-0.87,3.08-0.35,3.25,0.17
			c0.25,0.74,2.12,5.5,4.63,5.28c2.75,1.84-0.83,5.39,3.22,8.49c1.23,9.13,3.34,33.22,6.78,38.34c0.68,1.44,1.41,3.88,1.2,5.4
			c-1.02,9.79,0.71,15.39,3.19,24.68c1.6,5.99,1.8,20.15,1.19,22.19c-0.48,1.59-1.46,3.37-3.05,4.35c-1.84,1.13-3.6,3.03-5.05,4.88
			c-0.86,1.1-2.39,2.15-3,3.41c-0.56,1.15-0.8,2.24-2.27,3.97c-0.4,0.65-0.94,1.26-0.44,2.06c0.83,1.52,3.98,0.22,4.59-1
			c1.3-2.38,3.44-3.28,4.32-4.16c-0.62,1.86-2.09,5.57-2.75,6.87c-0.4,0.79-0.08,2.21,0.7,2.57s2.17,0.08,2.92-1.17
			c0.05,1.34,2.02,1.69,2.84,1.12s1.17-1.09,1.48-1.7c0.36-0.71,0.7-1.57,1.47-2.09c-0.29,1.09-0.41,1.86,0.64,2.08
			c0.89,0.19,1.64-0.36,1.93-0.69c0.6-0.67,2.17-3.56,2.51-3.93c1.31,1,2.51,0.25,3.83-1.94c0.72-1.08,1.15-2.26,2.05-3.15
			c2.45-2.41,2.5-5.13,1.97-8.13c-0.72-2.24-0.25-2.22-1.03-8.35c-0.55-6.26,1.46-24.1,0.55-29.73c-1.05-6.5-2.2-10.16-2.89-16.7
			c-0.21-1.98-0.4-3.75-0.46-5.74c-0.23-7.61,0.49-22.85,0.17-30.49c-0.27-6.5-0.67-13.45-3.04-19.56c-0.26-0.68-0.3-1.04-0.37-1.66
			c-0.07-0.59-0.08-1.96,0.08-2.61c0.81-3.33,2.05-6.27,1.59-7.03c-0.59-0.98-2.06-2.41-4.15-4.48c-2.34-2.31-3.21-4.86-3.58-7.66
			c-0.17-1.31,0.12-3.99-0.11-5.35c-0.29-1.66-1.51-5.99-1.67-7.77c-0.36-4.12-0.93-8.44-1.64-12.09c-1-5.14-3.36-9.89-4.41-14.99
			c-1.33-6.48-2.1-12.15-2.64-18.11l-69.63,40.2c0,0.49-0.03,1.08-0.12,1.85c-0.41,3.31-1.28,6.45-2.24,9.92
			c-0.54,1.96-0.74,4.08-0.7,6.12c0.05,2.88,0.47,6.59,0.18,9.41c-0.24,2.39-1.06,2.84-1.2,6.21c-0.07,1.65-1.85,4.52-2.37,6.26
			C56.01,290.95,55.12,292.95,56.1,298.17z"/>
		<path class="st0" d="M89.41,16.3c1.2-0.15,2.33,0.32,3.21,1c4.06,3.68,7.49,7.56,11.06,11.52c1.32,1.69,1.64,4.36,1.88,6.49
			c0.5,4.52,0.17,9.04-0.12,13.55c-0.61,9.53-0.92,21.14-0.59,30.68c0.17,4.73,0.82,9.41,2.01,14.03
			c1.56,6.04,1.81,12.21,1.69,18.41c-0.09,4.49-1.36,8.83-1.66,13.26c-0.65,9.79-0.75,20.72-0.8,30.54
			c-0.88,1.2-3.58,1.88-5.43,2.41c-5.29,1.5-3.94,3.68-2.37,6.49c1.57,2.81,4.96,5.11,7.51,4.96c0.4,1.46,0.9,3.94,1.05,6.05
			c0.28,4.03,1.09,5.79,2.02,9.7c1.35,5.71,1.18,13.22,1.47,19.07c0.23,4.63,0.16,9.26,0.92,13.92c0.05,0.32,0.1,0.65,0.14,0.97
			l71.23-41.12c0.19-2.03,0.21-4.08-0.24-6.18c-0.37-1.71,0.09-5.66,0.85-7.34c4.77,0,7.21-1.78,8.34-3.54
			c0.74-1.14-0.01-2.4-0.27-3.71c-0.37-1.85-0.71-3.65-2.74-4.16c-3.45-0.88-5.43-0.41-7.77,0.17c-0.29-2.79-0.91-7.12-1.23-9.91
			c-0.87-7.42-1.47-14.88-2.6-22.26c-1.68-10.97-1.56-21.89-0.46-32.83c0.54-5.32,2.21-11.57,1.71-16.92
			c-0.69-7.43-0.9-13.94-2.54-21.26c-0.18-0.82-2.04-11.59-2.34-17.68c-0.13-2.56,0.63-9.17,2.39-10.86
			c3.17-3.05,6.06-6.76,9.38-10.03c0.84-0.95,1.92-1.47,3.29-1.42c1.09,0.04,2.16,0.4,3.24,0.21c1.21-0.21,1.61-1.05,1.91-2.03
			c0.2-0.65-0.21-1.55-0.71-1.82c-0.89-0.49-1.58-0.73-3.07-0.91c-2.59-2.83-6.72-4.57-10.61-5.49c-1.92-0.46-3.61-0.41-5.03,1.28
			c-0.99,1.18-1.23,2.85-2.09,4.08c-1.46,2.08-3,3.35-5.1,4.44c-2.65,1.38-4.3,3.31-3.69,6.56c0.11,0.58,0.26,1.97,0.33,2.58
			c0.47,4.54-1.14,15.8-1.32,17.69c-0.7,7.3-1.15,12.7-2.34,16.07c-2.78,8.61-3.32,17.35-2.59,26.23c0.21,2.56,0.7,5.03,0.39,7.49
			c-0.31,2.43-1.42,4.86-2.46,7.2c-1.18,2.64-1.96,5.42-2.26,8.31c-0.96,9.23-0.91,18.5-1.12,27.76
			c-0.08,3.88-2.29,14.93-3.12,16.39c-1.79-2.63-4.17-0.44-8.89-4.57c-1.36,0.44-2.67,1.65-3.02,3.4
			c-2.45-6.44-5.96-16.57-6.14-25.46c-0.16-8.3-0.69-18.83-4.54-25.96c-0.71-1.66-0.89-3.41-0.99-5.22
			c-0.33-6.16-0.28-12.37-1.7-18.41c-1.22-5.2-3.01-12.32-4.34-17.51c-1.43-5.57-2.8-11.16-3.39-16.84
			c-0.4-3.88-0.62-6.24-0.68-7.94c-0.03-0.99-0.06-1.99-0.05-2.99c0.01-3.1,0.79-5.21-3.36-7.1c-1.11-0.51-2.04-0.67-2.71-1.23
			c-1.93-1.61-3.19-4.12-3.87-6.78c-0.96-3.76-2.93-5.7-5.94-4.6c-3.34,1.21-7.29,2.48-9,6.36c-0.25,0.62-0.77,0.93-1.44,1.01
			c-1.24,0.15-1.82,0.87-1.67,2.12C87.14,15.82,88.05,16.47,89.41,16.3z"/>
	</g>
</g>
</svg>
